<svg xmlns="http://www.w3.org/2000/svg" viewBox="0 0 1440 320">
  <path fill="url(#grad1)" fill-opacity="1" d="M0,192L48,165.3C96,139,192,85,288,96C384,107,480,181,576,181.3C672,181,768,107,864,101.3C960,96,1056,160,1152,176C1248,192,1344,160,1392,144L1440,128L1440,320L1392,320C1344,320,1248,320,1152,320C1056,320,960,320,864,320C768,320,672,320,576,320C480,320,384,320,288,320C192,320,96,320,48,320L0,320Z"></path>
  <defs>
    <linearGradient id="grad1" x1="0%" y1="0%" x2="100%" y2="0%">
      <stop offset="0%" style="stop-color:#0000ff;stop-opacity:1" />
      <stop offset="100%" style="stop-color:#800080;stop-opacity:1" />
    </linearGradient>
  </defs>
</svg>